<svg width="116" height="116" xmlns="http://www.w3.org/2000/svg" xmlns:xlink="http://www.w3.org/1999/xlink" xml:space="preserve" overflow="hidden"><g transform="translate(-1024 -336)"><g><g><g><g><path d="M1074.88 369.062 1093.88 369.062 1093.88 365.5C1093.88 362.888 1091.74 360.75 1089.12 360.75L1039.25 360.75C1036.64 360.75 1034.5 362.888 1034.5 365.5L1034.5 397.562C1034.5 400.175 1036.64 402.312 1039.25 402.312L1046.38 402.312 1046.38 414.188 1058.25 402.312 1065.38 402.312 1065.38 378.562C1065.38 373.337 1069.65 369.062 1074.88 369.062Z" fill="#FFFFFF" fill-rule="nonzero" fill-opacity="1"/><path d="M1124.75 373.812 1074.88 373.812C1072.26 373.812 1070.12 375.95 1070.12 378.562L1070.12 410.625C1070.12 413.237 1072.26 415.375 1074.88 415.375L1105.75 415.375 1117.62 427.25 1117.62 415.375 1124.75 415.375C1127.36 415.375 1129.5 413.237 1129.5 410.625L1129.5 378.562C1129.5 375.95 1127.36 373.812 1124.75 373.812Z" fill="#FFFFFF" fill-rule="nonzero" fill-opacity="1"/></g></g></g></g></g></svg>